<mxfile host="app.diagrams.net" modified="2021-01-18T21:17:59.043Z" agent="5.0 (X11)" etag="K_26DdCfmeYWMP27rnrz" version="14.2.4" type="github">
  <diagram id="piDafpqhtRUU5qUU-vj8" name="Page-1">
    <mxGraphModel dx="768" dy="735" grid="1" gridSize="10" guides="1" tooltips="1" connect="1" arrows="1" fold="1" page="1" pageScale="1" pageWidth="827" pageHeight="1169" math="0" shadow="0">
      <root>
        <mxCell id="0" />
        <mxCell id="1" parent="0" />
        <mxCell id="3u1k-eW0uz8aJwU53Fp8-16" value="&lt;div align=&quot;left&quot;&gt;Chinese Checkers Lobby&lt;br&gt;&lt;/div&gt;" style="strokeWidth=1;shadow=0;dashed=0;align=left;html=1;shape=mxgraph.mockup.containers.window;align=left;verticalAlign=top;spacingLeft=8;strokeColor2=#008cff;strokeColor3=#c4c4c4;fontColor=#666666;mainText=;fontSize=17;labelBackgroundColor=none;" vertex="1" parent="1">
          <mxGeometry x="880" y="440" width="560" height="360" as="geometry" />
        </mxCell>
        <mxCell id="8962rQQDY3VNNf6We3Pp-10" value="&lt;div align=&quot;left&quot;&gt;2&lt;/div&gt;" style="rounded=1;fillColor=#F1F2F4;strokeColor=none;html=1;fontColor=#596780;align=left;fontSize=10;spacingLeft=10" parent="1" vertex="1">
          <mxGeometry x="1000" y="553" width="90" height="33" as="geometry" />
        </mxCell>
        <mxCell id="8962rQQDY3VNNf6We3Pp-11" value="" style="shape=triangle;direction=south;fillColor=#596780;strokeColor=none;html=1" parent="8962rQQDY3VNNf6We3Pp-10" vertex="1">
          <mxGeometry x="1" y="0.5" width="12" height="6" relative="1" as="geometry">
            <mxPoint x="-20" y="-3" as="offset" />
          </mxGeometry>
        </mxCell>
        <mxCell id="8962rQQDY3VNNf6We3Pp-14" value="Rewatch" style="rounded=1;align=center;strokeColor=none;html=1;fontColor=#ffffff;fontSize=12;fillColor=#008CFF;" parent="1" vertex="1">
          <mxGeometry x="1280" y="680" width="86" height="33" as="geometry" />
        </mxCell>
        <mxCell id="3u1k-eW0uz8aJwU53Fp8-17" style="edgeStyle=orthogonalEdgeStyle;rounded=0;orthogonalLoop=1;jettySize=auto;html=1;exitX=0.5;exitY=1;exitDx=0;exitDy=0;" edge="1" parent="1" source="8962rQQDY3VNNf6We3Pp-10" target="8962rQQDY3VNNf6We3Pp-10">
          <mxGeometry relative="1" as="geometry" />
        </mxCell>
        <mxCell id="3u1k-eW0uz8aJwU53Fp8-19" value="Join" style="rounded=1;align=center;strokeColor=none;html=1;fontColor=#ffffff;fontSize=12;fillColor=#008CFF;" vertex="1" parent="1">
          <mxGeometry x="1120" y="680" width="86" height="33" as="geometry" />
        </mxCell>
        <mxCell id="3u1k-eW0uz8aJwU53Fp8-20" value="Host" style="rounded=1;align=center;strokeColor=none;html=1;fontColor=#ffffff;fontSize=12;fillColor=#008CFF;" vertex="1" parent="1">
          <mxGeometry x="960" y="680" width="86" height="33" as="geometry" />
        </mxCell>
        <mxCell id="3u1k-eW0uz8aJwU53Fp8-21" value="Nr of players" style="text;html=1;strokeColor=none;fillColor=none;align=center;verticalAlign=middle;whiteSpace=wrap;rounded=0;fontSize=13;fontColor=#0066CC;" vertex="1" parent="1">
          <mxGeometry x="890" y="559.5" width="100" height="20" as="geometry" />
        </mxCell>
        <mxCell id="3u1k-eW0uz8aJwU53Fp8-22" value="Rule set" style="text;html=1;strokeColor=none;fillColor=none;align=center;verticalAlign=middle;whiteSpace=wrap;rounded=0;fontSize=13;fontColor=#0066CC;" vertex="1" parent="1">
          <mxGeometry x="890" y="513" width="100" height="20" as="geometry" />
        </mxCell>
        <mxCell id="3u1k-eW0uz8aJwU53Fp8-23" value="1" style="rounded=1;fillColor=#F1F2F4;strokeColor=none;html=1;fontColor=#596780;align=left;fontSize=10;spacingLeft=10" vertex="1" parent="1">
          <mxGeometry x="1000" y="506.5" width="90" height="33" as="geometry" />
        </mxCell>
        <mxCell id="3u1k-eW0uz8aJwU53Fp8-24" value="" style="shape=triangle;direction=south;fillColor=#596780;strokeColor=none;html=1" vertex="1" parent="3u1k-eW0uz8aJwU53Fp8-23">
          <mxGeometry x="1" y="0.5" width="12" height="6" relative="1" as="geometry">
            <mxPoint x="-20" y="-3" as="offset" />
          </mxGeometry>
        </mxCell>
        <mxCell id="3u1k-eW0uz8aJwU53Fp8-26" value="small" style="rounded=1;fillColor=#F1F2F4;strokeColor=none;html=1;fontColor=#596780;align=left;fontSize=10;spacingLeft=10" vertex="1" parent="1">
          <mxGeometry x="1000" y="603" width="90" height="33" as="geometry" />
        </mxCell>
        <mxCell id="3u1k-eW0uz8aJwU53Fp8-27" value="" style="shape=triangle;direction=south;fillColor=#596780;strokeColor=none;html=1" vertex="1" parent="3u1k-eW0uz8aJwU53Fp8-26">
          <mxGeometry x="1" y="0.5" width="12" height="6" relative="1" as="geometry">
            <mxPoint x="-20" y="-3" as="offset" />
          </mxGeometry>
        </mxCell>
        <mxCell id="3u1k-eW0uz8aJwU53Fp8-28" style="edgeStyle=orthogonalEdgeStyle;rounded=0;orthogonalLoop=1;jettySize=auto;html=1;exitX=0.5;exitY=1;exitDx=0;exitDy=0;" edge="1" parent="1" source="3u1k-eW0uz8aJwU53Fp8-26" target="3u1k-eW0uz8aJwU53Fp8-26">
          <mxGeometry relative="1" as="geometry" />
        </mxCell>
        <mxCell id="3u1k-eW0uz8aJwU53Fp8-29" value="Board size" style="text;html=1;strokeColor=none;fillColor=none;align=center;verticalAlign=middle;whiteSpace=wrap;rounded=0;fontSize=13;fontColor=#0066CC;" vertex="1" parent="1">
          <mxGeometry x="890" y="609.5" width="100" height="20" as="geometry" />
        </mxCell>
        <mxCell id="3u1k-eW0uz8aJwU53Fp8-33" value="&lt;font style=&quot;font-size: 12px&quot;&gt;Room Id&lt;br&gt;&lt;/font&gt;" style="strokeWidth=1;shadow=0;dashed=0;align=center;html=1;shape=mxgraph.mockup.forms.pwField;strokeColor=#999999;mainText=;align=left;fontColor=#666666;fontSize=17;spacingLeft=3;" vertex="1" parent="1">
          <mxGeometry x="1103" y="559.5" width="120" height="30" as="geometry" />
        </mxCell>
        <mxCell id="3u1k-eW0uz8aJwU53Fp8-34" value="&lt;font style=&quot;font-size: 12px&quot;&gt;Room Id&lt;br&gt;&lt;/font&gt;" style="strokeWidth=1;shadow=0;dashed=0;align=center;html=1;shape=mxgraph.mockup.forms.pwField;strokeColor=#999999;mainText=;align=left;fontColor=#666666;fontSize=17;spacingLeft=3;" vertex="1" parent="1">
          <mxGeometry x="1270" y="559.5" width="120" height="30" as="geometry" />
        </mxCell>
        <mxCell id="3u1k-eW0uz8aJwU53Fp8-35" value="&lt;div align=&quot;left&quot;&gt;Chinese Checkers Lobby&lt;br&gt;&lt;/div&gt;" style="strokeWidth=1;shadow=0;dashed=0;align=left;html=1;shape=mxgraph.mockup.containers.window;align=left;verticalAlign=top;spacingLeft=8;strokeColor2=#008cff;strokeColor3=#c4c4c4;fontColor=#666666;mainText=;fontSize=17;labelBackgroundColor=none;" vertex="1" parent="1">
          <mxGeometry x="880" y="40" width="560" height="360" as="geometry" />
        </mxCell>
        <mxCell id="3u1k-eW0uz8aJwU53Fp8-38" value="Rewatch" style="rounded=1;align=center;strokeColor=none;html=1;fontColor=#ffffff;fontSize=12;fillColor=#008CFF;" vertex="1" parent="1">
          <mxGeometry x="1304" y="301.5" width="86" height="33" as="geometry" />
        </mxCell>
        <mxCell id="3u1k-eW0uz8aJwU53Fp8-39" style="edgeStyle=orthogonalEdgeStyle;rounded=0;orthogonalLoop=1;jettySize=auto;html=1;exitX=0.5;exitY=1;exitDx=0;exitDy=0;" edge="1" parent="1">
          <mxGeometry relative="1" as="geometry">
            <mxPoint x="1045" y="186" as="sourcePoint" />
            <mxPoint x="1045" y="186" as="targetPoint" />
          </mxGeometry>
        </mxCell>
        <mxCell id="3u1k-eW0uz8aJwU53Fp8-40" value="Join" style="rounded=1;align=center;strokeColor=none;html=1;fontColor=#ffffff;fontSize=12;fillColor=#008CFF;" vertex="1" parent="1">
          <mxGeometry x="1304" y="220" width="86" height="33" as="geometry" />
        </mxCell>
        <mxCell id="3u1k-eW0uz8aJwU53Fp8-41" value="Host" style="rounded=1;align=center;strokeColor=none;html=1;fontColor=#ffffff;fontSize=12;fillColor=#008CFF;" vertex="1" parent="1">
          <mxGeometry x="1304" y="132" width="86" height="33" as="geometry" />
        </mxCell>
        <mxCell id="3u1k-eW0uz8aJwU53Fp8-48" style="edgeStyle=orthogonalEdgeStyle;rounded=0;orthogonalLoop=1;jettySize=auto;html=1;exitX=0.5;exitY=1;exitDx=0;exitDy=0;" edge="1" parent="1">
          <mxGeometry relative="1" as="geometry">
            <mxPoint x="1045" y="236" as="sourcePoint" />
            <mxPoint x="1045" y="236" as="targetPoint" />
          </mxGeometry>
        </mxCell>
        <mxCell id="3u1k-eW0uz8aJwU53Fp8-50" value="&lt;font style=&quot;font-size: 12px&quot;&gt;&lt;font style=&quot;font-size: 14px&quot;&gt;Room Id&lt;/font&gt;&lt;br&gt;&lt;/font&gt;" style="strokeWidth=1;shadow=0;dashed=0;align=center;html=1;shape=mxgraph.mockup.forms.pwField;strokeColor=#999999;mainText=;align=left;fontColor=#666666;fontSize=17;spacingLeft=3;" vertex="1" parent="1">
          <mxGeometry x="970" y="221.5" width="240" height="30" as="geometry" />
        </mxCell>
        <mxCell id="3u1k-eW0uz8aJwU53Fp8-51" value="&lt;font style=&quot;font-size: 14px&quot;&gt;Room Id&lt;br&gt;&lt;/font&gt;" style="strokeWidth=1;shadow=0;dashed=0;align=center;html=1;shape=mxgraph.mockup.forms.pwField;strokeColor=#999999;mainText=;align=left;fontColor=#666666;fontSize=17;spacingLeft=3;" vertex="1" parent="1">
          <mxGeometry x="970" y="301.5" width="240" height="30" as="geometry" />
        </mxCell>
        <mxCell id="3u1k-eW0uz8aJwU53Fp8-58" value="" style="group" vertex="1" connectable="0" parent="1">
          <mxGeometry x="1050" y="112" width="90" height="53" as="geometry" />
        </mxCell>
        <mxCell id="3u1k-eW0uz8aJwU53Fp8-59" value="Board size" style="text;html=1;strokeColor=none;fillColor=none;align=center;verticalAlign=middle;whiteSpace=wrap;rounded=0;fontSize=13;fontColor=#0066CC;" vertex="1" parent="3u1k-eW0uz8aJwU53Fp8-58">
          <mxGeometry width="90" height="20" as="geometry" />
        </mxCell>
        <mxCell id="3u1k-eW0uz8aJwU53Fp8-60" value="small" style="rounded=1;fillColor=#F1F2F4;strokeColor=none;html=1;fontColor=#596780;align=left;fontSize=10;spacingLeft=10" vertex="1" parent="3u1k-eW0uz8aJwU53Fp8-58">
          <mxGeometry y="20" width="90" height="33" as="geometry" />
        </mxCell>
        <mxCell id="3u1k-eW0uz8aJwU53Fp8-61" value="" style="shape=triangle;direction=south;fillColor=#596780;strokeColor=none;html=1" vertex="1" parent="3u1k-eW0uz8aJwU53Fp8-60">
          <mxGeometry x="1" y="0.5" width="12" height="6" relative="1" as="geometry">
            <mxPoint x="-20" y="-3" as="offset" />
          </mxGeometry>
        </mxCell>
        <mxCell id="3u1k-eW0uz8aJwU53Fp8-54" value="" style="group" vertex="1" connectable="0" parent="1">
          <mxGeometry x="1170" y="112" width="90" height="53" as="geometry" />
        </mxCell>
        <mxCell id="3u1k-eW0uz8aJwU53Fp8-55" value="Nr of players" style="text;html=1;strokeColor=none;fillColor=none;align=center;verticalAlign=middle;whiteSpace=wrap;rounded=0;fontSize=13;fontColor=#0066CC;" vertex="1" parent="3u1k-eW0uz8aJwU53Fp8-54">
          <mxGeometry width="90" height="20" as="geometry" />
        </mxCell>
        <mxCell id="3u1k-eW0uz8aJwU53Fp8-56" value="2" style="rounded=1;fillColor=#F1F2F4;strokeColor=none;html=1;fontColor=#596780;align=left;fontSize=10;spacingLeft=10" vertex="1" parent="3u1k-eW0uz8aJwU53Fp8-54">
          <mxGeometry y="20" width="90" height="33" as="geometry" />
        </mxCell>
        <mxCell id="3u1k-eW0uz8aJwU53Fp8-57" value="" style="shape=triangle;direction=south;fillColor=#596780;strokeColor=none;html=1" vertex="1" parent="3u1k-eW0uz8aJwU53Fp8-56">
          <mxGeometry x="1" y="0.5" width="12" height="6" relative="1" as="geometry">
            <mxPoint x="-20" y="-3" as="offset" />
          </mxGeometry>
        </mxCell>
        <mxCell id="3u1k-eW0uz8aJwU53Fp8-52" value="" style="group" vertex="1" connectable="0" parent="1">
          <mxGeometry x="930" y="112" width="90" height="53" as="geometry" />
        </mxCell>
        <mxCell id="3u1k-eW0uz8aJwU53Fp8-43" value="Rule set" style="text;html=1;strokeColor=none;fillColor=none;align=center;verticalAlign=middle;whiteSpace=wrap;rounded=0;fontSize=13;fontColor=#0066CC;" vertex="1" parent="3u1k-eW0uz8aJwU53Fp8-52">
          <mxGeometry width="90" height="20" as="geometry" />
        </mxCell>
        <mxCell id="3u1k-eW0uz8aJwU53Fp8-44" value="Standard" style="rounded=1;fillColor=#F1F2F4;strokeColor=none;html=1;fontColor=#596780;align=left;fontSize=10;spacingLeft=10" vertex="1" parent="3u1k-eW0uz8aJwU53Fp8-52">
          <mxGeometry y="20" width="90" height="33" as="geometry" />
        </mxCell>
        <mxCell id="3u1k-eW0uz8aJwU53Fp8-45" value="" style="shape=triangle;direction=south;fillColor=#596780;strokeColor=none;html=1" vertex="1" parent="3u1k-eW0uz8aJwU53Fp8-44">
          <mxGeometry x="1" y="0.5" width="12" height="6" relative="1" as="geometry">
            <mxPoint x="-20" y="-3" as="offset" />
          </mxGeometry>
        </mxCell>
      </root>
    </mxGraphModel>
  </diagram>
</mxfile>
